<svg width="72" height="70" viewBox="0 0 72 70" fill="none" xmlns="http://www.w3.org/2000/svg">
<g clip-path="url(#clip0_7598_696)">
<path d="M62.7552 52.6037L62.5626 51.6831L62.7552 51.3581L63.044 52.1163L62.7552 52.6037ZM60.3422 51.2679L61.0643 50.0584L59.9391 49.3905L59.1327 50.7384L58.7958 50.5398L59.8428 48.7827L62.9598 50.6361L61.9549 52.3269L61.6179 52.1284L62.3821 50.8467L61.3953 50.257L60.6792 51.4665L60.3483 51.2679H60.3422Z" fill="white"/>
<path d="M56.6053 53.6628C56.6415 53.4763 56.7859 53.1514 57.0627 52.8023C57.6945 51.996 58.6753 51.7914 59.614 52.5316C60.5106 53.2356 60.643 54.3127 59.945 55.1973C59.6682 55.5463 59.4155 55.7208 59.2891 55.7749L59.0604 55.444C59.2349 55.3597 59.4395 55.2033 59.6261 54.9626C60.1496 54.2947 60.0713 53.5124 59.3192 52.9227C58.6151 52.3751 57.857 52.4293 57.3154 53.1152C57.1349 53.3439 57.0025 53.6087 56.9604 53.8133L56.6053 53.6508V53.6628Z" fill="white"/>
<path d="M54.6798 55.3959C55.3718 54.728 56.3707 54.8002 57.1349 55.5945C57.9352 56.4249 57.9412 57.4598 57.2432 58.1338C56.5272 58.8258 55.5343 58.7235 54.7882 57.9472C53.9277 57.0507 54.0119 56.0458 54.6738 55.4079L54.6798 55.3959ZM54.9265 55.6847C54.391 56.2022 54.5655 56.9845 55.1311 57.5742C55.6306 58.0917 56.4249 58.3745 56.9845 57.8329C57.5501 57.2914 57.3215 56.4971 56.7799 55.9314C56.2504 55.3838 55.4561 55.1612 54.9265 55.6727V55.6847Z" fill="white"/>
<path d="M54.6496 60.312L54.2705 60.5949L52.357 57.9833L51.1054 58.898L50.8707 58.579L52.5014 57.3816L54.6436 60.306L54.6496 60.312Z" fill="white"/>
<path d="M49.0777 61.6178L50.2992 60.9198L49.6493 59.7825L48.2834 60.5587L48.0908 60.2158L49.8659 59.2048L51.6591 62.3579L49.9502 63.3327L49.7576 62.9898L51.0514 62.2496L50.4857 61.2507L49.2642 61.9488L49.0717 61.6118L49.0777 61.6178Z" fill="white"/>
<path d="M46.3999 64.9034C46.1352 65.0358 45.8283 65.1742 45.4733 65.2885C44.8354 65.4991 44.33 65.5051 43.9388 65.3246C43.5357 65.1441 43.2228 64.8011 43.0362 64.2475C42.8497 63.6879 42.8798 63.1644 43.0904 62.7432C43.313 62.3159 43.7884 61.9609 44.4563 61.7443C44.7813 61.636 45.04 61.5638 45.2807 61.5156L46.3999 64.9034ZM44.9437 62.003C44.8234 62.0211 44.6609 62.0752 44.4864 62.1294C43.5357 62.4363 43.1927 63.1463 43.5056 64.079C43.7704 64.9034 44.4022 65.2584 45.3409 64.9455C45.5696 64.8673 45.738 64.7951 45.8464 64.7289L44.9437 62.003Z" fill="white"/>
<path d="M41.3454 66.3896L40.9843 64.2655C40.8459 63.4712 40.4367 63.1883 39.9554 63.2726C39.4318 63.3628 39.143 63.772 39.2814 64.5603L39.6424 66.6844L39.1731 66.7627L38.8181 64.6746C38.6315 63.5735 39.131 63.0319 39.9072 62.8995C40.6413 62.7731 41.2611 63.0921 41.4537 64.2053L41.8147 66.3114L41.3454 66.3896Z" fill="white"/>
<path d="M32.1147 64.825C32.1147 65.3304 32.1087 65.9442 32.0846 66.3895H32.0966C32.2471 65.9803 32.4216 65.529 32.6322 65.0416L33.3723 63.3206L33.7273 63.3447L34.2147 65.1018C34.3591 65.6253 34.4675 66.1007 34.5457 66.5339H34.5577C34.5938 66.0826 34.66 65.4809 34.7202 64.9393L34.9067 63.3928L35.352 63.4169L34.8887 67.0273L34.293 66.9912L33.7755 65.2041C33.6491 64.7528 33.5528 64.3436 33.4806 63.9645H33.4686C33.3482 64.3255 33.1978 64.7167 33.0113 65.1619L32.2651 66.8769L31.6694 66.8408L31.6573 63.2063L32.1207 63.2304V64.825H32.1147Z" fill="white"/>
<path d="M28.9074 62.6046C29.8461 62.8152 30.3335 63.6877 30.0928 64.7588C29.8401 65.8841 28.9796 66.4617 28.0349 66.2451C27.0661 66.0225 26.6088 65.1439 26.8434 64.0909C27.1202 62.8754 28.0048 62.394 28.9014 62.5986L28.9074 62.6046ZM28.7991 62.9717C28.077 62.8092 27.5114 63.3808 27.3308 64.1872C27.1684 64.8912 27.373 65.7096 28.1312 65.878C28.8954 66.0526 29.4309 65.4267 29.6054 64.6625C29.7739 63.9164 29.5212 63.1341 28.7991 62.9717Z" fill="white"/>
<path d="M26.0251 61.8886L24.6953 65.2644L24.2139 65.0778L23.8107 62.9477C23.7205 62.4543 23.6603 62.027 23.6423 61.6118H23.6242C23.4858 62.0752 23.3354 62.4904 23.1308 63.0139L22.5712 64.434L22.162 64.2715L23.4918 60.8958L23.9311 61.0703L24.3282 63.2064C24.4185 63.6758 24.4907 64.1511 24.5088 64.5784H24.5268C24.6712 64.1451 24.8217 63.7359 25.0443 63.1763L25.6099 61.7322L26.0191 61.8946L26.0251 61.8886Z" fill="white"/>
<path d="M20.3507 63.3388C20.08 63.2305 19.7671 63.0861 19.4481 62.8996C18.8645 62.5626 18.5275 62.1895 18.4011 61.7743C18.2627 61.3531 18.3169 60.8898 18.6117 60.3843C18.9066 59.8728 19.3158 59.5479 19.7731 59.4275C20.2424 59.3072 20.8201 59.4275 21.4279 59.7826C21.7227 59.9511 21.9514 60.1015 22.1439 60.2519L20.3507 63.3388ZM21.5542 60.3241C21.464 60.2459 21.3135 60.1617 21.1571 60.0654C20.2906 59.5599 19.5384 59.7705 19.045 60.619C18.6057 61.3651 18.7561 62.0692 19.6106 62.5686C19.8212 62.689 19.9897 62.7612 20.1101 62.8033L21.5482 60.3241H21.5542Z" fill="white"/>
<path d="M16.0123 58.182L17.1195 59.0424L17.9198 58.0135L16.6802 57.0507L16.9209 56.7378L18.5335 57.9954L16.3071 60.8597L14.7546 59.6562L14.9953 59.3433L16.1747 60.258L16.8788 59.3553L15.7716 58.4949L16.0123 58.188V58.182Z" fill="white"/>
<path d="M13.509 55.2213C13.7196 55.444 13.7076 55.799 13.4729 56.0156C13.2442 56.2322 12.8892 56.2142 12.6726 55.9855C12.462 55.7569 12.468 55.4018 12.7027 55.1852C12.9313 54.9746 13.2864 54.9866 13.503 55.2153L13.509 55.2213Z" fill="white"/>
<path d="M10.6387 49.4626C10.8011 49.5529 11.0659 49.7996 11.3066 50.1727C11.8662 51.0272 11.7399 52.02 10.741 52.6759C9.78421 53.3017 8.72516 53.0731 8.11139 52.1283C7.86467 51.7553 7.79247 51.4604 7.77441 51.322L8.15953 51.2137C8.1836 51.4063 8.26784 51.653 8.43031 51.9057C8.89364 52.6157 9.65785 52.7963 10.4582 52.2728C11.2043 51.7854 11.4029 51.0452 10.9215 50.3111C10.765 50.0704 10.5544 49.8538 10.3739 49.7515L10.6387 49.4687V49.4626Z" fill="white"/>
<path d="M9.62778 47.0978C10.037 47.9703 9.64583 48.891 8.65297 49.3543C7.61197 49.8417 6.62512 49.5228 6.21594 48.6443C5.79472 47.7417 6.20992 46.8391 7.18473 46.3818C8.30998 45.8522 9.23665 46.2554 9.62778 47.0918V47.0978ZM9.27276 47.2422C8.95985 46.5683 8.15955 46.478 7.41339 46.827C6.7575 47.1339 6.23399 47.7958 6.57096 48.4999C6.90192 49.2039 7.7263 49.252 8.43634 48.9151C9.12834 48.5901 9.58566 47.9102 9.27276 47.2422Z" fill="white"/>
<path d="M4.98841 45.4853L4.84399 45.034L7.9309 44.0652L7.46756 42.5849L7.84064 42.4646L8.4484 44.3962L4.98841 45.4853Z" fill="white"/>
<path d="M5.54194 39.7748L5.8067 41.1527L7.0884 40.906L6.79355 39.3596L7.17866 39.2874L7.55776 41.2972L3.99548 41.9711L3.62842 40.0395L4.01353 39.9673L4.29033 41.4295L5.41558 41.2129L5.15081 39.8349L5.5299 39.7627L5.54194 39.7748Z" fill="white"/>
<path d="M6.70337 35.2619C6.79363 35.4665 6.93804 35.8817 6.96211 36.3691C6.9922 36.9167 6.87787 37.374 6.55895 37.747C6.27613 38.078 5.80076 38.2946 5.23513 38.3247C4.152 38.3849 3.32161 37.6809 3.26144 36.4653C3.23737 36.0441 3.30957 35.7072 3.38178 35.5447L3.76689 35.641C3.68867 35.8395 3.63451 36.0863 3.65256 36.4533C3.7007 37.3319 4.27837 37.8794 5.18699 37.8313C6.10765 37.7832 6.61912 37.2055 6.57099 36.357C6.55293 36.0502 6.49878 35.8456 6.4386 35.7372L5.35548 35.7974L5.39158 36.5255L5.01851 36.5436L4.95231 35.3521L6.69133 35.2559L6.70337 35.2619Z" fill="white"/>
<path d="M3.33364 33.2097L6.95609 33.4083L6.93202 33.8837L3.30957 33.6851L3.33364 33.2097Z" fill="white"/>
<path d="M7.34723 30.526C7.19679 31.4767 6.35436 32.0183 5.27124 31.8438C4.13395 31.6633 3.50213 30.8389 3.65257 29.8882C3.80902 28.9073 4.65746 28.3898 5.72254 28.5583C6.95008 28.7569 7.49164 29.6114 7.34723 30.52V30.526ZM6.97415 30.4418C7.0945 29.7076 6.48073 29.1841 5.66838 29.0578C4.95833 28.9434 4.15201 29.1962 4.03166 29.9664C3.91131 30.7366 4.5672 31.236 5.34344 31.3564C6.09561 31.4767 6.85982 31.1759 6.97415 30.4478V30.4418Z" fill="white"/>
<path d="M5.10278 24.5569C5.16897 24.268 5.26525 23.9431 5.40365 23.6001C5.65638 22.9743 5.9753 22.5892 6.36643 22.4027C6.76358 22.2101 7.22691 22.1921 7.77449 22.4087C8.32207 22.6313 8.70117 22.9863 8.88771 23.4196C9.07424 23.8649 9.03814 24.4546 8.77338 25.1045C8.64701 25.4174 8.53268 25.6701 8.41233 25.8807L5.10278 24.5509V24.5569ZM8.2619 25.3151C8.32809 25.2128 8.38826 25.0563 8.46047 24.8818C8.83957 23.9551 8.51463 23.2391 7.60601 22.872C6.8057 22.5471 6.12574 22.7938 5.75868 23.7144C5.66842 23.9371 5.62028 24.1176 5.59621 24.244L8.25588 25.3151H8.2619Z" fill="white"/>
<path d="M9.5796 19.5203L8.88761 20.7418L10.0249 21.3917L10.8011 20.0257L11.1441 20.2183L10.1332 21.9994L6.9801 20.2062L7.9489 18.4973L8.29189 18.6899L7.55777 19.9836L8.55665 20.5492L9.24865 19.3277L9.58562 19.5203H9.5796Z" fill="white"/>
<path d="M8.92371 17.0051L9.20652 16.626L11.812 18.5395L12.7267 17.2879L13.0456 17.5226L11.8481 19.1533L8.92371 17.0051Z" fill="white"/>
<path d="M16.265 12.0167C15.9099 11.6556 15.4767 11.2224 15.1818 10.8854H15.1758C15.3563 11.2946 15.5549 11.7339 15.7475 12.2273L16.4395 13.9663L16.1747 14.201L14.5861 13.3044C14.1107 13.0336 13.7016 12.7809 13.3405 12.5282H13.3345C13.6294 12.8832 14.0084 13.3465 14.3514 13.7798L15.3142 15.0073L14.9833 15.3022L12.7568 12.4259L13.2021 12.0287L14.8328 12.9313C15.242 13.166 15.597 13.3826 15.916 13.5993H15.922C15.7535 13.2563 15.585 12.8712 15.3985 12.4199L14.7125 10.6808L15.1578 10.2837L17.7392 12.8411L17.3962 13.148L16.271 12.0167H16.265Z" fill="white"/>
<path d="M17.318 8.72506L18.4733 10.5423C18.9066 11.2223 19.394 11.3185 19.8032 11.0598C20.2545 10.777 20.3568 10.2836 19.9295 9.61563L18.7742 7.79838L19.1713 7.54565L20.3086 9.33883C20.9043 10.2775 20.6516 10.9756 19.9897 11.3968C19.3639 11.7939 18.6659 11.7398 18.0581 10.789L16.9088 8.9838L17.312 8.73108L17.318 8.72506Z" fill="white"/>
<path d="M22.4387 9.89859L20.9645 6.58302L21.4398 6.37242L23.2451 7.58191C23.6603 7.86472 24.0093 8.12347 24.3161 8.39425L24.3282 8.38222C24.0935 7.95498 23.901 7.55784 23.6723 7.04636L23.0525 5.65635L23.4557 5.47583L24.9299 8.7914L24.4967 8.98395L22.6975 7.76845C22.3003 7.50368 21.9152 7.22087 21.5903 6.93203L21.5782 6.94407C21.7889 7.35325 21.9694 7.75039 22.2161 8.29797L22.8479 9.71807L22.4447 9.89859H22.4387Z" fill="white"/>
<path d="M25.3872 4.83197C25.658 4.71162 25.9769 4.59127 26.332 4.495C26.9818 4.32049 27.4813 4.33854 27.8664 4.53712C28.2635 4.73569 28.5584 5.09673 28.7088 5.66236C28.8653 6.23401 28.8111 6.75151 28.5764 7.16069C28.3358 7.5819 27.8423 7.90082 27.1624 8.08736C26.8374 8.17762 26.5666 8.2378 26.326 8.2739L25.3812 4.83197H25.3872ZM26.693 7.80455C26.8134 7.79251 26.9818 7.75039 27.1563 7.70225C28.1251 7.44351 28.4982 6.75151 28.2395 5.80678C28.0168 4.97037 27.4091 4.58526 26.4523 4.844C26.2176 4.91019 26.0492 4.97639 25.9348 5.03656L26.693 7.80455Z" fill="white"/>
<path d="M31.88 7.16058C30.9232 7.2689 30.1771 6.60699 30.0507 5.51784C29.9183 4.37455 30.5381 3.54415 31.5009 3.43584C32.4878 3.32151 33.2159 4.00147 33.3362 5.07256C33.4806 6.30612 32.8007 7.05829 31.886 7.16058H31.88ZM31.8559 6.77547C32.5961 6.69123 32.933 5.96313 32.8428 5.14477C32.7585 4.4287 32.3012 3.72467 31.525 3.80891C30.7487 3.89917 30.4479 4.66338 30.5381 5.44564C30.6224 6.20382 31.1218 6.85972 31.8559 6.77547Z" fill="white"/>
<path d="M37.0791 5.70458C36.7722 5.68653 36.5375 5.42177 36.5555 5.10284C36.5736 4.78994 36.8444 4.55527 37.1573 4.57933C37.4702 4.6034 37.7049 4.86215 37.6808 5.18107C37.6567 5.49397 37.392 5.72865 37.0791 5.70458Z" fill="white"/>
<path d="M41.2009 7.55774L41.249 3.81494L41.7304 3.94131L41.6702 5.82474C41.6582 6.2941 41.6341 6.75142 41.604 7.10644H41.6161C41.7665 6.77548 41.9892 6.39037 42.2298 5.96916L43.1686 4.32642L43.6439 4.45278L43.5958 6.34825C43.5838 6.79354 43.5657 7.2328 43.5176 7.61792H43.5296C43.7041 7.25687 43.9087 6.88981 44.1313 6.48665L45.064 4.84391L45.5274 4.97028L43.5958 8.20762L43.1204 8.08125L43.1625 6.14366C43.1746 5.66227 43.1926 5.30123 43.2408 4.93417H43.2287C43.0783 5.27114 42.9038 5.58405 42.6511 6.00526L41.6642 7.69614L41.1888 7.56978L41.2009 7.55774Z" fill="white"/>
<path d="M46.8994 9.56154C46.0268 9.15837 45.732 8.20161 46.1893 7.20875C46.6707 6.16173 47.6335 5.77662 48.512 6.17978C49.4146 6.59498 49.6794 7.55174 49.2281 8.53257C48.7046 9.66383 47.7418 9.95267 46.9054 9.56755L46.8994 9.56154ZM47.0799 9.22457C47.7538 9.53747 48.4217 9.09218 48.7647 8.34603C49.0656 7.69014 49.0415 6.84771 48.3315 6.52277C47.6214 6.19783 46.9655 6.69727 46.6346 7.40732C46.3157 8.09932 46.3999 8.91768 47.0678 9.22457H47.0799Z" fill="white"/>
<path d="M51.5026 7.86475C51.7252 7.95501 52.0321 8.11146 52.3029 8.28596C52.7241 8.55674 52.9467 8.81549 53.025 9.11034C53.0912 9.339 53.043 9.60376 52.8926 9.84446C52.6338 10.2416 52.2066 10.3439 51.8155 10.2476V10.2597C51.984 10.4883 51.984 10.7952 51.8576 11.1623C51.6831 11.6497 51.5627 11.9927 51.5507 12.1491L51.1415 11.8843C51.1415 11.764 51.2498 11.4631 51.4123 11.0299C51.5928 10.5485 51.5266 10.2837 51.1776 10.043L50.8046 9.80234L49.9501 11.1262L49.559 10.8734L51.4966 7.87076L51.5026 7.86475ZM51.0031 9.50147L51.4063 9.76022C51.8275 10.031 52.2427 9.97684 52.4653 9.62783C52.7181 9.23671 52.5436 8.87566 52.1284 8.6109C51.9358 8.49055 51.7974 8.42436 51.7132 8.39427L50.9971 9.50147H51.0031Z" fill="white"/>
<path d="M54.8182 10.0972L55.1792 10.398L53.1093 12.8832L54.3007 13.8761L54.048 14.1769L52.4955 12.8832L54.8182 10.0972Z" fill="white"/>
<path d="M57.55 12.5642C57.7786 12.7507 58.0314 12.9734 58.2841 13.2502C58.7414 13.7436 58.952 14.2009 58.952 14.6342C58.952 15.0795 58.7715 15.5007 58.3382 15.8978C57.905 16.301 57.4176 16.4875 56.9482 16.4695C56.4668 16.4454 55.9493 16.1566 55.474 15.6391C55.2453 15.3924 55.0648 15.1818 54.9264 14.9832L57.55 12.5642ZM55.5041 15.0915C55.5702 15.1938 55.6846 15.3202 55.8109 15.4525C56.4849 16.1927 57.2671 16.2107 57.9892 15.5428C58.6331 14.9591 58.6933 14.2431 58.0253 13.515C57.8629 13.3344 57.7245 13.2141 57.6162 13.1419L55.5041 15.0855V15.0915Z" fill="white"/>
<path d="M59.2108 19.3519C59.2108 19.5986 59.277 19.9115 59.4394 20.1883C59.6861 20.5975 60.0472 20.7058 60.3661 20.5133C60.6489 20.3388 60.7211 20.068 60.6248 19.5565C60.4985 18.9367 60.5767 18.4674 61.01 18.2026C61.4913 17.9077 62.0931 18.0883 62.4601 18.696C62.6527 19.0089 62.7189 19.2857 62.7249 19.4662L62.3338 19.5565C62.3338 19.4241 62.2977 19.1654 62.1232 18.8826C61.8644 18.4613 61.5154 18.4553 61.3048 18.5817C61.016 18.7562 60.9859 19.033 61.0822 19.5625C61.1965 20.2124 61.1062 20.6276 60.6489 20.9044C60.1735 21.1992 59.5417 21.103 59.0964 20.3688C58.9159 20.068 58.8076 19.6889 58.8196 19.4542L59.2168 19.3579L59.2108 19.3519Z" fill="white"/>
<path d="M61.5517 24.8397C61.4073 24.7254 61.1847 24.4365 61.0041 24.0394C60.5889 23.1067 60.8657 22.1439 61.9549 21.6565C62.9959 21.1871 64.0068 21.5783 64.4701 22.6072C64.6507 23.0164 64.6808 23.3233 64.6747 23.4617L64.2776 23.5098C64.2836 23.3173 64.2415 23.0585 64.1211 22.7817C63.7721 22.0055 63.044 21.7107 62.1775 22.1018C61.3592 22.4688 61.0523 23.1669 61.4133 23.9672C61.5337 24.2319 61.7082 24.4726 61.8646 24.605L61.5577 24.8397H61.5517Z" fill="white"/>
<path d="M65.5051 25.5437L64.0428 25.965L64.5242 27.6498L65.9804 27.2286L66.1128 27.6859L62.6227 28.6848L62.4904 28.2275L64.1271 27.7581L63.6457 26.0733L62.009 26.5426L61.8766 26.0853L65.3667 25.0864L65.499 25.5437H65.5051Z" fill="white"/>
<path d="M63.0559 31.5491C62.9355 30.5923 63.5854 29.8341 64.6746 29.6957C65.8179 29.5513 66.6543 30.1591 66.7746 31.1218C66.901 32.1087 66.227 32.8428 65.162 32.9752C63.9284 33.1316 63.1702 32.4637 63.0559 31.5491ZM63.435 31.525C63.5313 32.2591 64.2594 32.5901 65.0777 32.4878C65.7938 32.3975 66.4918 31.9282 66.3955 31.1519C66.2992 30.3757 65.529 30.0869 64.7468 30.1831C63.9886 30.2794 63.3447 30.7849 63.435 31.513V31.525Z" fill="white"/>
<path d="M63.2726 35.9115C63.3027 34.9488 64.0609 34.3049 65.1621 34.335C66.3114 34.3711 67.0455 35.0992 67.0154 36.068C66.9853 37.0609 66.2091 37.6806 65.132 37.6506C63.8864 37.6145 63.2425 36.8322 63.2726 35.9176V35.9115ZM63.6517 35.9476C63.6276 36.6878 64.3016 37.1271 65.126 37.1511C65.848 37.1752 66.6122 36.8202 66.6363 36.0379C66.6604 35.2557 65.9443 34.8465 65.156 34.8224C64.3918 34.7983 63.6758 35.1955 63.6517 35.9356V35.9476Z" fill="white"/>
<path d="M66.6844 39.4437L66.6122 39.9131L63.417 39.4016L63.1703 40.93L62.7792 40.8698L63.0981 38.8721L66.6844 39.4437Z" fill="white"/>
<path d="M62.9297 44.8534C63.026 44.5645 63.3389 44.4021 63.6458 44.5044C63.9406 44.6006 64.1031 44.9256 64.0008 45.2204C63.9045 45.5153 63.5856 45.6777 63.2847 45.5754C62.9899 45.4792 62.8274 45.1542 62.9297 44.8594V44.8534Z" fill="white"/>
<path d="M60.27 35.0271C60.27 48.9633 48.9754 60.2579 35.0392 60.2579C23.191 60.2579 13.2563 52.0984 10.5425 41.0866C15.4827 41.0324 20.1642 39.9252 24.3945 37.9997V28.1793C24.3945 27.4031 24.1237 26.8314 23.5821 26.4704C23.0405 26.1094 22.0838 25.9288 20.7058 25.9288V25.0202C22.5351 24.96 24.2079 24.8517 25.7363 24.6953C27.2647 24.5448 28.5765 24.3102 29.6837 24.0033L29.7078 38.2644V40.9121C29.7078 41.8388 29.6957 42.7534 29.6657 43.65C29.6356 44.5466 29.5874 45.389 29.5333 46.1652C29.4731 46.9415 29.4009 47.6034 29.3106 48.1389C30.809 49.0115 32.4758 49.7275 34.305 50.2992C36.1343 50.8708 37.8433 51.1536 39.4318 51.1536C40.7797 51.1536 42.0855 50.949 43.3431 50.5459C44.6008 50.1427 45.72 49.553 46.6948 48.7708C47.6696 47.9945 48.4579 47.0317 49.0596 45.8945C49.6614 44.7572 49.9562 43.4634 49.9562 42.0253C49.9562 40.7075 49.7336 39.492 49.2823 38.3848C48.831 37.2716 48.1991 36.3148 47.3868 35.5025C46.5745 34.6901 45.6177 34.0583 44.5045 33.5889C43.3913 33.1256 42.1758 32.8909 40.858 32.8909C39.8651 32.8909 38.8542 33.0654 37.8192 33.4144C36.7842 33.7634 35.8455 34.1907 35.0031 34.7022V30.4599C39.5462 25.7122 42.7474 19.6648 43.975 12.9313C38.3487 10.5424 31.8319 10.2295 25.6641 12.5703C18.8164 15.1698 13.8039 20.5072 11.409 26.8615C13.7196 20.0198 18.9548 14.2251 26.2358 11.4631C32.3133 9.15845 38.6616 9.36304 44.2036 11.5233C44.2036 11.5233 44.2036 11.5112 44.2036 11.5052C53.6088 15.1698 60.282 24.3102 60.282 35.0151L60.27 35.0271ZM35.7552 47.9464C36.4412 49.1318 37.6086 49.7215 39.2634 49.7215C40.9181 49.7215 42.0795 49.1318 42.7715 47.9464C43.4575 46.767 43.8065 44.9016 43.8065 42.3502C43.8065 39.7989 43.4635 37.9395 42.7715 36.7541C42.0795 35.5687 40.9121 34.979 39.2634 34.979C37.6146 34.979 36.4472 35.5687 35.7552 36.7541C35.0632 37.9395 34.7203 39.8049 34.7203 42.3502C34.7203 44.8956 35.0632 46.761 35.7552 47.9464ZM29.1783 21.1751C29.8763 20.4952 30.2253 19.6407 30.2253 18.6117C30.2253 17.5828 29.8763 16.7343 29.1783 16.0483C28.4802 15.3623 27.6318 15.0254 26.6389 15.0254C25.6461 15.0254 24.7976 15.3684 24.0996 16.0483C23.4016 16.7343 23.0526 17.5888 23.0526 18.6117C23.0526 19.6347 23.4016 20.4952 24.0996 21.1751C24.7976 21.8611 25.6461 22.1981 26.6389 22.1981C27.6318 22.1981 28.4802 21.8551 29.1783 21.1751Z" fill="white"/>
<path d="M60.7634 12.1371C66.185 18.2267 69.4885 26.2478 69.4885 35.0452C69.4885 54.0661 54.066 69.4886 35.0391 69.4886C32.8548 69.4886 30.7187 69.284 28.6487 68.8929C31.3926 69.615 34.2809 70.0001 37.2535 70.0001C37.3077 70.0001 37.3618 70.0001 37.416 70.0001C55.6606 68.7786 70.0843 53.5968 70.0843 35.0392C70.0843 29.2986 68.7003 23.871 66.2512 19.0872C64.7348 16.5298 62.8815 14.1951 60.7694 12.1311L60.7634 12.1371Z" fill="white"/>
<path d="M0.595719 35.0391C0.595719 17.9739 13.0035 3.81501 29.2865 1.07711C31.8499 0.499441 34.5156 0.192556 37.2535 0.192556C37.8913 0.192556 38.5292 0.210608 39.161 0.240695C37.8071 0.0842431 36.4351 0 35.0391 0C15.6873 0 0 15.6873 0 35.0391C0 43.1084 2.73188 50.5398 7.31711 56.4669C5.49987 53.7832 4.04367 50.8347 3.00266 47.6996C1.45018 43.7823 0.601736 39.51 0.601736 35.0391H0.595719Z" fill="white"/>
<path d="M71.2997 10.8854C71.2997 12.0468 70.3971 12.9554 69.2298 12.9554C68.0624 12.9554 67.1598 12.0468 67.1598 10.8854C67.1598 9.72405 68.0624 8.81543 69.2298 8.81543C70.3971 8.81543 71.2997 9.72405 71.2997 10.8854ZM67.4847 10.8854C67.4847 11.8723 68.2309 12.6605 69.2298 12.6605C70.2286 12.6605 70.9748 11.8783 70.9748 10.8854C70.9748 9.89254 70.2286 9.11028 69.2298 9.11028C68.2309 9.11028 67.4847 9.89254 67.4847 10.8854ZM68.7785 12.0829H68.4836V9.69397H69.3983C69.9398 9.69397 70.1745 9.92864 70.1745 10.3559C70.1745 10.7831 69.8977 10.9696 69.5728 11.0238L70.2828 12.0829H69.9398L69.2659 11.0238H68.7724V12.0829H68.7785ZM69.1696 10.7711C69.5306 10.7711 69.8857 10.759 69.8857 10.3559C69.8857 10.0249 69.6089 9.94669 69.32 9.94669H68.7785V10.7771H69.1696V10.7711Z" fill="white"/>
</g>
<defs>
<clipPath id="clip0_7598_696">
<rect width="71.2998" height="70" fill="white"/>
</clipPath>
</defs>
</svg>
