<svg width="30" height="30" viewBox="0 0 30 30" fill="none" xmlns="http://www.w3.org/2000/svg">
<path d="M26.2919 14.9862C26.2919 8.74923 21.237 3.69434 15 3.69434C8.76302 3.69434 3.70813 8.74923 3.70813 14.9862C3.70813 20.2793 7.35594 24.7255 12.2741 25.9473V18.4356H9.94514V14.9862H12.2741V13.4998C12.2741 9.65787 14.012 7.87587 17.7877 7.87587C18.5023 7.87587 19.7373 8.01702 20.2446 8.15817V11.2811C19.9799 11.2546 19.5168 11.237 18.939 11.237C17.0864 11.237 16.3718 11.9383 16.3718 13.76V14.9862H20.0593L19.4242 18.4356H16.3674V26.1943C21.9604 25.5195 26.2919 20.7601 26.2919 14.9862Z" fill="black"/>
</svg>
