<svg width="230" height="230" viewBox="0 0 230 230" fill="none" xmlns="http://www.w3.org/2000/svg">
<path fill-rule="evenodd" clip-rule="evenodd" d="M125.831 0C120.622 0.0749942 115.437 1.95253 111.276 5.61653C111.047 5.8308 110.999 6.19774 111.172 6.46825C111.289 6.64234 111.47 6.7468 111.653 6.76555C111.696 6.76555 111.738 6.75751 111.768 6.75751C118.649 6.69323 124.743 9.22964 128.341 13.1347C125.884 13.0838 123.414 14.0105 121.563 15.9175C117.094 20.5056 117.163 27.8684 121.718 32.3707C127.402 37.9926 136.539 37.9042 142.133 32.1752C149.116 25.0132 149.001 13.5043 141.891 6.47361C137.597 2.23108 132.045 0.0776726 126.477 0H125.831ZM76.4404 13.9221C76.3127 14.1793 76.3845 14.498 76.6159 14.6774C76.7701 14.7873 76.9456 14.8167 77.1184 14.7765C77.1477 14.7631 77.1769 14.7498 77.2141 14.7364C83.0267 12.5428 88.9748 12.7999 93.2186 14.9908C91.1126 15.7166 89.3045 17.2621 88.3234 19.4583C85.9383 24.7374 88.2516 30.9619 93.4898 33.3617C100.039 36.3668 107.766 33.4447 110.744 26.8533C114.472 18.6066 110.853 8.8761 102.669 5.12907C99.9458 3.88363 97.0927 3.29439 94.2901 3.29171C87.0444 3.29171 80.1018 7.22355 76.4404 13.9221ZM147.302 9.26178C146.983 9.3957 146.8 9.7546 146.885 10.1001C146.935 10.3197 147.087 10.4965 147.27 10.5849C147.316 10.6063 147.35 10.609 147.39 10.6278C154.532 13.1722 159.879 18.1031 162.139 23.5026C159.613 22.5197 156.72 22.5438 154.096 23.8133C147.757 26.8613 145.074 34.5054 148.111 40.8799C151.892 48.8587 161.376 52.2335 169.292 48.4222C177.617 44.418 181.906 35.3142 180.231 26.6015C180.255 26.6122 180.276 26.631 180.3 26.6497C186.57 31.8431 190.154 38.7881 190.463 45.0581C188.291 43.1377 185.363 42.1012 182.249 42.4039C174.762 43.1324 169.281 49.839 170.01 57.3759C170.919 66.8011 179.242 73.7032 188.599 72.7926C190.019 72.6506 191.404 72.3694 192.723 71.9703C189.968 73.6818 187.836 76.4245 186.956 79.8367C184.722 88.5869 189.944 97.5085 198.629 99.7637C206.749 101.874 214.997 98.7165 219.802 92.4223C219.802 92.4384 219.789 92.4625 219.789 92.4866C219.799 92.5268 219.813 92.5643 219.813 92.6045C221.105 99.5843 219.653 106.221 216.375 110.568C215.997 108.064 214.62 105.728 212.384 104.178C207.004 100.455 199.639 101.831 195.94 107.268C194.374 109.567 193.534 112.157 193.372 114.755C193.061 119.806 195.318 124.895 199.764 127.975C208.174 133.787 219.677 131.634 225.46 123.154C227.247 120.534 228.425 117.679 229.023 114.755C230.739 106.403 227.768 97.4898 220.874 91.9C220.698 91.7581 220.456 91.7367 220.254 91.8036C221.65 89.8216 222.722 87.5611 223.36 85.0675C226.644 72.2623 219.635 59.2535 207.571 54.7645C207.842 53.0263 207.903 51.221 207.733 49.389C206.374 35.3571 194.475 24.9597 180.707 25.2436C180.409 25.2543 180.151 25.4471 180.042 25.723C179.726 24.3785 179.263 23.0473 178.646 21.751C174.395 12.7812 165.519 7.56906 156.271 7.56906C153.274 7.56906 150.235 8.11812 147.302 9.26178ZM207.026 57.2929C210.201 63.563 210.903 70.2428 209.288 75.5111C207.954 73.0765 205.675 71.1775 202.79 70.4303C200.684 69.8839 198.56 69.8973 196.579 70.3606C201.66 67.626 205.449 62.8907 207.026 57.2929ZM46.3088 33.0296C46.2795 33.2894 46.4364 33.5438 46.6917 33.6188C46.8539 33.6697 47.0187 33.6376 47.149 33.5465C47.1729 33.5304 47.1889 33.5063 47.2181 33.4849C51.5018 29.7968 56.6416 28.1576 60.9332 28.7014C59.3724 29.9789 58.3141 31.8645 58.1519 34.0393C57.7397 39.2863 61.6298 43.8716 66.8388 44.2841C73.3506 44.7876 79.0355 39.8916 79.5434 33.3296C80.1762 25.1418 74.0951 17.9772 65.9666 17.3344C65.4827 17.2942 64.9961 17.2754 64.5201 17.2754C55.4371 17.2754 47.7074 23.9928 46.3088 33.0296ZM35.7819 39.5353C26.1351 42.2378 20.3411 51.979 22.2476 61.7122C22.3035 61.972 22.5507 62.1595 22.8166 62.1354C22.9895 62.1327 23.1437 62.047 23.2341 61.9131C23.2501 61.8836 23.266 61.8595 23.282 61.8274C26.1377 56.7331 30.5463 53.3236 34.8964 52.3272C33.8248 54.1137 33.4606 56.3153 34.0562 58.4848C35.4973 63.7076 40.8685 66.7636 46.0562 65.3146C52.5388 63.496 56.3225 56.7331 54.5224 50.2059C52.6531 43.419 46.5268 38.9756 39.8581 38.9756C38.51 38.9756 37.1406 39.155 35.7819 39.5353ZM126.102 46.1402C117.375 49.0757 112.674 58.5705 115.589 67.3528C117.913 74.3809 125.453 78.1707 132.436 75.8245C138.014 73.955 141.024 67.8751 139.163 62.2479C138.384 59.915 136.717 58.1419 134.664 57.1831C139.214 55.4127 145.279 55.7903 150.953 58.6481C150.993 58.6642 151.025 58.6776 151.054 58.6964C151.216 58.758 151.402 58.7446 151.567 58.6481C151.823 58.4955 151.929 58.1714 151.825 57.9036C148.523 50.0024 140.862 45.0608 132.665 45.0581C130.49 45.0581 128.28 45.409 126.102 46.1402ZM85.8425 54.6842C81.7264 60.7239 83.2314 68.9813 89.2274 73.1408C94.0162 76.4593 100.581 75.2379 103.878 70.4088C106.519 66.5493 105.554 61.2649 101.714 58.6026C100.119 57.5018 98.2254 57.1831 96.4705 57.5634C98.5073 54.2583 102.525 51.5853 107.463 50.6693C107.492 50.6559 107.521 50.6559 107.542 50.6559C107.675 50.6157 107.795 50.5166 107.848 50.372C107.936 50.1577 107.854 49.9033 107.662 49.7828C105.072 48.2641 102.217 47.5329 99.3821 47.5329C94.1598 47.5329 89.0307 50.0265 85.8425 54.6842ZM142.173 76.9842C139.642 84.5988 143.713 92.8535 151.291 95.4114C157.345 97.455 163.894 94.1713 165.928 88.0753C166.771 85.5336 166.468 82.8981 165.309 80.7179C170.412 82.1722 175.421 86.4924 178.487 92.7035C178.505 92.7437 178.521 92.7785 178.543 92.816C178.641 92.9687 178.814 93.0919 179.019 93.108C179.338 93.1401 179.643 92.9366 179.726 92.6312C182.584 81.216 176.32 69.3161 165.046 65.5074C163.142 64.8646 161.206 64.5566 159.3 64.5566C151.751 64.5566 144.704 69.3643 142.173 76.9842ZM72.88 64.645C64.5255 65.6601 58.1918 72.9801 58.5587 81.591C58.8725 88.8226 64.9482 94.4338 72.1248 94.1231C77.8736 93.8713 82.3327 88.986 82.0774 83.1954C81.886 78.5671 77.9985 74.9808 73.4038 75.1737C71.5 75.2594 69.8115 76.1379 68.6575 77.4904C68.3065 73.6631 69.8993 69.1527 73.2549 65.4699C73.2762 65.4432 73.2948 65.4217 73.3161 65.4083C73.3879 65.2958 73.4224 65.1485 73.3879 65.0093C73.3347 64.7923 73.1353 64.645 72.9199 64.645C72.9039 64.645 72.8959 64.645 72.88 64.645ZM14.1111 69.6616C4.98019 76.2343 2.57912 88.7369 8.29328 98.2558C8.45282 98.5076 8.77987 98.612 9.06438 98.4861C9.24254 98.4085 9.36485 98.2558 9.41803 98.0844C9.42335 98.0522 9.42335 98.0147 9.43398 97.9799C10.5082 91.5063 13.8532 86.2058 18.0491 83.4739C17.605 85.7693 18.0517 88.236 19.5115 90.293C23.0187 95.24 29.847 96.3836 34.7555 92.8535C40.8898 88.4316 42.315 79.8447 37.925 73.6657C34.5906 68.9625 29.3444 66.4583 24.0185 66.4583C20.5831 66.4583 17.1158 67.4948 14.1111 69.6616ZM50.7014 95.2212C42.7643 101.663 40.927 113.271 46.79 121.874C51.7118 129.105 61.5288 130.937 68.6974 125.974C74.4435 122.016 75.8953 114.104 71.9626 108.326C68.8091 103.698 62.5312 102.522 57.9365 105.702C56.0327 107.014 54.8574 109.012 54.5303 111.144C51.7464 107.44 50.4993 101.778 51.6028 95.8212C51.6081 95.7917 51.6134 95.7596 51.6134 95.7247C51.6294 95.5614 51.5762 95.3873 51.4433 95.2667C51.3369 95.165 51.188 95.1087 51.0418 95.1087C50.9194 95.1087 50.7971 95.1462 50.7014 95.2212ZM3.98573 106.248C-2.80532 116.228 -0.675472 129.686 8.52727 137.159C8.77721 137.349 9.15479 137.328 9.38878 137.105C9.53502 136.964 9.60682 136.763 9.59352 136.57C9.58555 136.535 9.58023 136.497 9.57757 136.463C8.29328 129.555 9.73711 122.988 12.9731 118.694C13.3533 121.167 14.7041 123.481 16.9217 125.007C22.2423 128.695 29.5173 127.329 33.176 121.957C37.7468 115.255 36.0504 106.09 29.395 101.491C26.2334 99.3057 22.6332 98.2585 19.0701 98.2585C13.2496 98.2558 7.53015 101.049 3.98573 106.248ZM160.581 103.296C156.736 105.953 154.814 110.381 155.144 114.755C155.308 116.913 156.021 119.056 157.327 120.966C160.475 125.599 166.758 126.775 171.355 123.596C173.265 122.281 174.44 120.285 174.762 118.143C177.559 121.852 178.803 127.525 177.7 133.484C177.692 133.516 177.689 133.549 177.676 133.575C177.671 133.752 177.724 133.921 177.854 134.044C178.064 134.237 178.38 134.253 178.599 134.079C184.438 129.352 186.98 121.831 185.594 114.755C185.092 112.194 184.081 109.695 182.518 107.405C179.46 102.916 174.522 100.506 169.499 100.506C166.423 100.506 163.312 101.411 160.581 103.296ZM6.3017 144.334C3.05242 157.041 10.1227 169.95 22.1998 174.209C21.878 176.038 21.7903 177.94 21.9764 179.884C23.2979 193.638 34.9682 203.834 48.4679 203.556C48.7497 203.542 48.9917 203.366 49.1113 203.108C49.4357 204.606 49.925 206.092 50.6057 207.538C56.2454 219.43 70.0083 224.734 82.0083 220.057C82.3353 219.915 82.5215 219.559 82.4337 219.205C82.3832 218.986 82.2369 218.814 82.0482 218.726C82.0056 218.71 81.9711 218.699 81.9285 218.686C74.7732 216.133 69.41 211.189 67.1446 205.789C69.6733 206.767 72.5689 206.74 75.2093 205.473C81.5642 202.417 84.2445 194.765 81.2106 188.369C77.4189 180.377 67.9236 176.989 59.9866 180.814C51.7783 184.762 47.4947 193.638 48.9438 202.241C48.9225 202.219 48.8986 202.203 48.8614 202.176C42.7218 197.085 39.196 190.282 38.8982 184.13C41.0413 186.007 43.9077 187.036 46.9522 186.736C54.2884 186.018 59.6675 179.44 58.9576 172.05C58.0668 162.807 49.9037 156.039 40.7355 156.936C31.9077 157.804 24.9013 164.082 22.6491 172.2C19.2483 165.871 18.4559 159.041 20.0965 153.703C21.3994 156.095 23.6489 157.957 26.4754 158.688C33.2824 160.461 40.2303 156.328 41.9906 149.469C44.1869 140.89 39.071 132.142 30.5463 129.93C28.8791 129.499 27.2093 129.293 25.5634 129.293C16.7063 129.293 8.62033 135.292 6.3017 144.334ZM219.722 131.323C219.55 131.398 219.433 131.54 219.39 131.714C219.385 131.746 219.379 131.778 219.369 131.81C218.337 138.043 215.122 143.137 211.078 145.767C211.501 143.563 211.067 141.185 209.669 139.211C206.292 134.449 199.727 133.348 194.999 136.749C189.088 141 187.724 149.265 191.947 155.219C197.219 162.654 207.478 164.377 214.856 159.065C223.658 152.736 225.966 140.705 220.462 131.548C220.353 131.374 220.158 131.275 219.956 131.275C219.879 131.275 219.799 131.288 219.722 131.323ZM63.2784 141.126C62.4142 143.7 62.7253 146.394 63.9006 148.612C58.7156 147.133 53.6077 142.73 50.4834 136.404C50.4648 136.366 50.4488 136.339 50.4355 136.299C50.3238 136.133 50.1563 136.015 49.9436 135.997C49.6245 135.959 49.3134 136.171 49.2283 136.476C46.3167 148.106 52.693 160.225 64.1665 164.095C73.8 167.347 84.2285 162.121 87.4539 152.42C90.0357 144.656 85.8877 136.256 78.174 133.653C76.9376 133.23 75.6746 133.034 74.4328 133.034C69.5137 133.034 64.927 136.165 63.2784 141.126ZM159.765 135.198C154.027 135.45 149.578 140.325 149.828 146.102C150.022 150.714 153.902 154.309 158.486 154.102C160.39 154.022 162.068 153.141 163.227 151.794C163.57 155.608 161.985 160.11 158.627 163.787C158.611 163.806 158.598 163.822 158.582 163.846C158.497 163.956 158.47 164.106 158.505 164.245C158.558 164.47 158.781 164.623 159.004 164.596C167.335 163.594 173.655 156.299 173.286 147.701C172.983 140.678 167.237 135.188 160.321 135.188C160.137 135.188 159.951 135.193 159.765 135.198ZM101.188 152.378C99.7543 152.378 98.2999 152.611 96.872 153.09C91.1339 155.013 88.0495 161.246 89.9586 167.015C90.7563 169.407 92.4661 171.228 94.5773 172.205C89.9134 174.027 83.6941 173.641 77.8736 170.706C77.831 170.692 77.8044 170.676 77.7699 170.655C77.605 170.598 77.4056 170.606 77.2487 170.706C76.9855 170.861 76.8764 171.196 76.9828 171.469C81.2717 181.724 92.7107 187.113 103.36 183.532C112.291 180.524 117.123 170.786 114.142 161.784C112.228 156.02 106.899 152.378 101.188 152.378ZM125.172 158.548C122.435 162.547 123.443 168.019 127.413 170.775C129.062 171.919 131.029 172.248 132.837 171.855C130.731 175.272 126.578 178.042 121.46 178.987C121.433 178.995 121.404 179 121.38 179.006C121.242 179.049 121.122 179.15 121.061 179.29C120.968 179.517 121.058 179.785 121.258 179.906C128.889 184.376 138.764 182.263 143.846 174.83C148.113 168.579 146.547 160.03 140.338 155.731C138.448 154.421 136.297 153.792 134.164 153.792C130.697 153.792 127.288 155.455 125.172 158.548ZM183.754 164.701C177.71 166.388 174.169 172.698 175.852 178.789C177.955 186.395 185.778 190.852 193.335 188.734C202.333 186.213 207.736 177.136 205.957 168.059C205.901 167.81 205.675 167.639 205.417 167.652C205.255 167.66 205.117 167.749 205.026 167.872C205.016 167.899 205.005 167.923 204.994 167.944C202.319 172.698 198.211 175.88 194.159 176.812C195.156 175.144 195.496 173.084 194.941 171.073C193.824 167.015 190.168 164.363 186.19 164.363C185.387 164.363 184.565 164.47 183.754 164.701ZM150.387 196.003C149.783 203.872 155.614 210.752 163.426 211.366C172.733 212.097 180.885 205.428 182.297 196.295C182.332 196.051 182.178 195.805 181.93 195.732C181.773 195.684 181.611 195.711 181.499 195.802C181.47 195.818 181.449 195.831 181.425 195.855C177.314 199.402 172.376 200.976 168.25 200.457C169.749 199.233 170.77 197.42 170.938 195.325C171.326 190.287 167.59 185.889 162.589 185.493C162.286 185.469 161.985 185.461 161.685 185.461C155.816 185.461 150.852 190.011 150.387 196.003ZM86.9965 196.924C79.9369 204.177 80.0353 215.825 87.2385 222.942C95.8111 231.421 109.329 231.641 118.226 223.809C118.463 223.593 118.508 223.226 118.322 222.947C118.221 222.776 118.032 222.671 117.843 222.652H117.726C110.76 222.719 104.596 220.156 100.954 216.198C103.437 216.251 105.931 215.316 107.814 213.385C112.337 208.744 112.265 201.284 107.662 196.734C104.817 193.924 101.116 192.521 97.4224 192.521C93.6387 192.521 89.8576 193.991 86.9965 196.924ZM118.415 202.361C114.661 210.675 118.309 220.475 126.562 224.259C136.392 228.759 147.877 224.758 152.995 215.391C153.133 215.142 153.056 214.81 152.82 214.636C152.673 214.526 152.487 214.499 152.322 214.537C152.299 214.545 152.261 214.564 152.224 214.574C146.361 216.787 140.376 216.53 136.097 214.315C138.211 213.589 140.027 212.025 141.024 209.818C143.428 204.49 141.094 198.215 135.807 195.802C134.045 194.99 132.197 194.605 130.378 194.605C125.387 194.605 120.617 197.487 118.415 202.361Z" fill="white"/>
</svg>
