<svg width="186" height="60" viewBox="0 0 186 60" fill="none" xmlns="http://www.w3.org/2000/svg">
<g id="Type=Dark">
<g id="logo-colored" clip-path="url(#clip0_748_5098)">
<path id="Fill-36" fill-rule="evenodd" clip-rule="evenodd" d="M32.8971 0C31.5353 0.0196064 30.1797 0.510467 29.0918 1.46838C29.032 1.5244 29.0195 1.62033 29.0647 1.69105C29.0953 1.73657 29.1426 1.76388 29.1905 1.76878C29.2016 1.76878 29.2128 1.76668 29.2204 1.76668C31.0195 1.74987 32.6128 2.41299 33.5534 3.43392C32.911 3.42062 32.2652 3.6629 31.7814 4.16146C30.6128 5.36095 30.6309 7.28588 31.8217 8.46297C33.308 9.93274 35.6965 9.90964 37.1592 8.41185C38.9847 6.53944 38.9548 3.53055 37.0959 1.69245C35.9732 0.583291 34.5217 0.0203066 33.066 0H32.8971ZM19.9845 3.63979C19.9511 3.70701 19.9699 3.79034 20.0304 3.83725C20.0707 3.86596 20.1166 3.87367 20.1618 3.86316C20.1694 3.85966 20.177 3.85616 20.1868 3.85266C21.7064 3.27917 23.2615 3.34639 24.371 3.91918C23.8204 4.10894 23.3477 4.51297 23.0912 5.08716C22.4676 6.46731 23.0724 8.09464 24.4419 8.72205C26.1541 9.50771 28.1742 8.74376 28.9528 7.02049C29.9274 4.86449 28.9813 2.32056 26.8416 1.34094C26.1297 1.01533 25.3838 0.861281 24.6511 0.860581C22.7568 0.860581 20.9417 1.88852 19.9845 3.63979ZM38.5106 2.42139C38.4271 2.4564 38.3792 2.55023 38.4014 2.64056C38.4146 2.69798 38.4542 2.7442 38.5022 2.7673C38.514 2.77291 38.5231 2.77361 38.5335 2.77851C40.4007 3.44373 41.7987 4.73285 42.3896 6.14451C41.7291 5.88752 40.9728 5.89383 40.2867 6.22573C38.6294 7.02259 37.928 9.02105 38.7219 10.6876C39.7104 12.7736 42.19 13.6559 44.2595 12.6594C46.4361 11.6126 47.5574 9.23252 47.1194 6.95467C47.1257 6.95747 47.1313 6.96237 47.1375 6.96728C48.7767 8.32502 49.7138 10.1407 49.7944 11.7799C49.2265 11.2779 48.4611 11.0069 47.6471 11.086C45.6895 11.2765 44.2568 13.0299 44.4472 15.0003C44.685 17.4644 46.8608 19.2689 49.3071 19.0308C49.6783 18.9937 50.0405 18.9202 50.3853 18.8158C49.6651 19.2633 49.1076 19.9803 48.8775 20.8724C48.2936 23.1601 49.6589 25.4925 51.9293 26.0821C54.0523 26.6339 56.2087 25.8083 57.4648 24.1628C57.4648 24.167 57.4614 24.1733 57.4614 24.1796C57.4641 24.1901 57.4676 24.1999 57.4676 24.2104C57.8055 26.0352 57.4259 27.7704 56.5688 28.9068C56.4701 28.2521 56.11 27.6415 55.5253 27.2361C54.119 26.2628 52.1934 26.6227 51.2265 28.0442C50.817 28.645 50.5973 29.3221 50.5549 30.0013C50.4736 31.3219 51.0638 32.6524 52.2261 33.4576C54.4249 34.9771 57.4322 34.4141 58.9441 32.1972C59.4113 31.5124 59.7192 30.766 59.8757 30.0013C60.324 27.818 59.5475 25.4876 57.745 24.0262C57.6991 23.9891 57.6358 23.9835 57.583 24.001C57.948 23.4829 58.2281 22.8919 58.395 22.24C59.2535 18.8922 57.421 15.4912 54.2671 14.3176C54.338 13.8631 54.354 13.3912 54.3095 12.9122C53.9543 9.24372 50.8434 6.52543 47.2439 6.59966C47.166 6.60246 47.0986 6.65287 47.0701 6.725C46.9874 6.37348 46.8664 6.02547 46.7051 5.68656C45.5936 3.34149 43.2731 1.97885 40.8553 1.97885C40.0719 1.97885 39.2773 2.12239 38.5106 2.42139ZM54.1246 14.9786C54.9546 16.6178 55.1381 18.3642 54.7162 19.7416C54.3672 19.105 53.7714 18.6086 53.0172 18.4132C52.4666 18.2704 51.9112 18.2739 51.3933 18.395C52.7217 17.6801 53.7123 16.4421 54.1246 14.9786ZM12.1069 8.63522C12.0993 8.70314 12.1403 8.76966 12.207 8.78927C12.2494 8.80258 12.2925 8.79417 12.3266 8.77036C12.3328 8.76616 12.337 8.75986 12.3447 8.75426C13.4646 7.79005 14.8083 7.3615 15.9303 7.50365C15.5222 7.83766 15.2456 8.33062 15.2032 8.89921C15.0954 10.271 16.1124 11.4697 17.4743 11.5776C19.1767 11.7092 20.663 10.4292 20.7957 8.71365C20.9612 6.57305 19.3714 4.69994 17.2462 4.53188C17.1197 4.52138 16.9925 4.51648 16.8681 4.51648C14.4934 4.51648 12.4726 6.27265 12.1069 8.63522ZM9.35477 10.3361C6.83272 11.0426 5.31796 13.5893 5.8164 16.134C5.83099 16.2019 5.89564 16.2509 5.96516 16.2446C6.01035 16.2439 6.05067 16.2215 6.0743 16.1865C6.07847 16.1788 6.08264 16.1725 6.08681 16.1641C6.83342 14.8322 7.986 13.9409 9.12328 13.6804C8.84313 14.1474 8.74789 14.723 8.90361 15.2902C9.28039 16.6556 10.6846 17.4546 12.0409 17.0758C13.7357 16.6003 14.7249 14.8322 14.2543 13.1258C13.7656 11.3514 12.1639 10.1897 10.4205 10.1897C10.068 10.1897 9.71 10.2366 9.35477 10.3361ZM32.968 12.0628C30.6865 12.8303 29.4575 15.3126 30.2194 17.6087C30.8269 19.4461 32.7984 20.4369 34.6239 19.8235C36.0824 19.3347 36.8693 17.7452 36.3827 16.274C36.179 15.6641 35.7431 15.2006 35.2064 14.9499C36.3959 14.487 37.9815 14.5858 39.465 15.3329C39.4754 15.3371 39.4838 15.3406 39.4914 15.3455C39.5338 15.3616 39.5825 15.3581 39.6256 15.3329C39.6923 15.293 39.7201 15.2083 39.693 15.1382C38.8296 13.0726 36.8269 11.7806 34.6837 11.7799C34.115 11.7799 33.5374 11.8717 32.968 12.0628ZM22.4426 14.2966C21.3665 15.8756 21.7599 18.0344 23.3275 19.1218C24.5795 19.9894 26.2959 19.6701 27.1579 18.4076C27.8482 17.3986 27.5958 16.017 26.592 15.321C26.1749 15.0332 25.68 14.9499 25.2211 15.0493C25.7536 14.1852 26.804 13.4864 28.0949 13.2469C28.1026 13.2434 28.1102 13.2434 28.1158 13.2434C28.1506 13.2329 28.1818 13.207 28.1957 13.1692C28.2187 13.1132 28.1971 13.0467 28.1471 13.0152C27.47 12.6181 26.7234 12.427 25.9823 12.427C24.617 12.427 23.2761 13.0789 22.4426 14.2966ZM37.1696 20.1267C36.5078 22.1174 37.5721 24.2755 39.5533 24.9443C41.1362 25.4785 42.8484 24.62 43.3802 23.0263C43.6005 22.3618 43.5213 21.6728 43.2182 21.1028C44.5522 21.483 45.8619 22.6125 46.6634 24.2363C46.6683 24.2468 46.6724 24.2559 46.678 24.2657C46.7037 24.3056 46.7489 24.3379 46.8024 24.3421C46.8859 24.3505 46.9658 24.2972 46.9874 24.2174C47.7347 21.233 46.0969 18.1219 43.1494 17.1262C42.6516 16.9581 42.1456 16.8776 41.6471 16.8776C39.6736 16.8776 37.8314 18.1345 37.1696 20.1267ZM19.0537 16.9007C16.8695 17.1661 15.2136 19.0798 15.3095 21.3311C15.3916 23.2217 16.98 24.6887 18.8562 24.6074C20.3592 24.5416 21.525 23.2644 21.4582 21.7505C21.4082 20.5405 20.3919 19.6029 19.1906 19.6533C18.6929 19.6757 18.2515 19.9054 17.9498 20.259C17.858 19.2584 18.2744 18.0792 19.1517 17.1164C19.1572 17.1094 19.1621 17.1038 19.1677 17.1003C19.1864 17.0709 19.1955 17.0324 19.1864 16.996C19.1725 16.9392 19.1204 16.9007 19.0641 16.9007C19.0599 16.9007 19.0578 16.9007 19.0537 16.9007ZM3.6892 18.2122C1.30201 19.9306 0.674283 23.1993 2.16819 25.6879C2.2099 25.7537 2.2954 25.781 2.36978 25.7481C2.41636 25.7278 2.44834 25.6879 2.46224 25.6431C2.46363 25.6347 2.46363 25.6249 2.46641 25.6158C2.74726 23.9233 3.62177 22.5376 4.71874 21.8233C4.60264 22.4234 4.71943 23.0683 5.10107 23.6061C6.01799 24.8994 7.80317 25.1984 9.08644 24.2755C10.6902 23.1195 11.0628 20.8745 9.91507 19.2591C9.04334 18.0295 7.67178 17.3748 6.27937 17.3748C5.38122 17.3748 4.47473 17.6458 3.6892 18.2122ZM13.2553 24.8945C11.1803 26.5786 10.6999 29.6134 12.2327 31.8625C13.5195 33.7531 16.086 34.2321 17.9602 32.9346C19.4624 31.8996 19.842 29.8311 18.8138 28.3208C17.9894 27.1108 16.3481 26.8034 15.1469 27.6345C14.6491 27.9776 14.3419 28.5 14.2564 29.0574C13.5285 28.089 13.2025 26.6087 13.491 25.0514C13.4924 25.0437 13.4938 25.0353 13.4938 25.0262C13.4979 24.9835 13.484 24.9379 13.4493 24.9064C13.4215 24.8798 13.3825 24.8651 13.3443 24.8651C13.3123 24.8651 13.2803 24.8749 13.2553 24.8945ZM1.04202 27.7774C-0.733419 30.3864 -0.176595 33.9051 2.22936 35.8587C2.29471 35.9084 2.39342 35.9028 2.45459 35.8447C2.49283 35.8076 2.5116 35.7551 2.50812 35.7047C2.50603 35.6956 2.50464 35.6858 2.50395 35.6767C2.16819 33.8708 2.54566 32.1538 3.39167 31.0313C3.49108 31.6776 3.84422 32.2826 4.42399 32.6818C5.81501 33.646 7.71697 33.2889 8.67351 31.8842C9.86849 30.1322 9.42498 27.7361 7.68499 26.5338C6.85844 25.9624 5.91719 25.6886 4.98568 25.6886C3.46397 25.6879 1.96867 26.4182 1.04202 27.7774ZM41.9822 27.0057C40.977 27.7004 40.4744 28.8578 40.5606 30.0013C40.6037 30.5657 40.79 31.1259 41.1313 31.6251C41.9544 32.8365 43.5971 33.1439 44.799 32.3128C45.2981 31.9689 45.6054 31.4473 45.6895 30.8871C46.4208 31.8569 46.7461 33.34 46.4576 34.898C46.4556 34.9064 46.4549 34.9148 46.4514 34.9218C46.45 34.968 46.4639 35.0121 46.498 35.0443C46.5529 35.0948 46.6356 35.099 46.6926 35.0535C48.2192 33.8175 48.8838 31.8513 48.5216 30.0013C48.3902 29.3319 48.126 28.6786 47.7173 28.0799C46.9178 26.9063 45.6269 26.2761 44.3138 26.2761C43.5095 26.2761 42.6961 26.5128 41.9822 27.0057ZM1.64751 37.7346C0.798022 41.0565 2.64646 44.4316 5.80388 45.545C5.71977 46.0232 5.69683 46.5204 5.74549 47.0288C6.09098 50.6244 9.14205 53.2902 12.6714 53.2174C12.7451 53.2139 12.8083 53.1677 12.8396 53.1004C12.9244 53.4919 13.0523 53.8805 13.2303 54.2586C14.7047 57.3676 18.3029 58.7541 21.4402 57.5315C21.5257 57.4944 21.5743 57.4013 21.5514 57.3088C21.5382 57.2514 21.4999 57.2066 21.4506 57.1835C21.4395 57.1793 21.4304 57.1765 21.4193 57.173C19.5486 56.5057 18.1465 55.213 17.5542 53.8014C18.2153 54.057 18.9723 54.05 19.6626 53.7188C21.3241 52.9198 22.0248 50.9192 21.2316 49.2471C20.2403 47.1576 17.7579 46.2718 15.6828 47.2717C13.5369 48.3039 12.417 50.6244 12.7958 52.8736C12.7903 52.868 12.784 52.8638 12.7743 52.8568C11.1691 51.5256 10.2474 49.7471 10.1695 48.1386C10.7298 48.6295 11.4792 48.8984 12.2751 48.82C14.1931 48.6323 15.5994 46.9125 15.4138 44.9806C15.1809 42.5641 13.0468 40.7946 10.6499 41.0292C8.34192 41.2561 6.51017 42.8974 5.92136 45.0198C5.03225 43.3652 4.8251 41.5796 5.25401 40.184C5.59464 40.8093 6.18275 41.296 6.9217 41.4872C8.70132 41.9507 10.5178 40.8703 10.978 39.077C11.5522 36.8341 10.2147 34.5472 7.986 33.9688C7.55013 33.8561 7.11357 33.8021 6.68326 33.8021C4.36768 33.8021 2.25369 35.3707 1.64751 37.7346ZM57.444 34.3329C57.3988 34.3525 57.3682 34.3896 57.3571 34.4351C57.3557 34.4436 57.3543 34.452 57.3515 34.4604C57.0818 36.0898 56.2413 37.4216 55.184 38.1092C55.2945 37.533 55.1812 36.9112 54.8156 36.3951C53.9327 35.1501 52.2164 34.8623 50.9804 35.7516C49.435 36.8628 49.0784 39.0237 50.1823 40.5804C51.5608 42.5242 54.2428 42.9744 56.1718 41.5859C58.4728 39.9312 59.0762 36.7858 57.6372 34.3917C57.6087 34.3462 57.558 34.3203 57.5052 34.3203C57.485 34.3203 57.4641 34.3238 57.444 34.3329ZM16.5434 36.8958C16.3175 37.5687 16.3988 38.2731 16.7061 38.8529C15.3505 38.4664 14.0151 37.3152 13.1983 35.6613C13.1935 35.6514 13.1893 35.6444 13.1858 35.6339C13.1566 35.5905 13.1128 35.5597 13.0572 35.5548C12.9738 35.545 12.8924 35.6003 12.8702 35.6802C12.109 38.7206 13.776 41.8891 16.7756 42.9009C19.2942 43.751 22.0206 42.3848 22.8638 39.8486C23.5389 37.8187 22.4544 35.6227 20.4377 34.9421C20.1145 34.8315 19.7843 34.7804 19.4596 34.7804C18.1736 34.7804 16.9744 35.5989 16.5434 36.8958ZM41.7688 35.3461C40.2686 35.412 39.1056 36.6864 39.171 38.1968C39.2217 39.4026 40.2359 40.3423 41.4344 40.2884C41.9321 40.2674 42.3708 40.037 42.6739 39.6848C42.7635 40.6819 42.3492 41.859 41.4712 42.8204C41.4671 42.8253 41.4636 42.8295 41.4594 42.8358C41.4372 42.8645 41.4302 42.9037 41.4393 42.9401C41.4532 42.9989 41.5116 43.0389 41.57 43.0319C43.7479 42.77 45.4003 40.8625 45.3037 38.6148C45.2244 36.7788 43.7222 35.3433 41.9141 35.3433C41.8661 35.3433 41.8174 35.3447 41.7688 35.3461ZM26.4544 39.8374C26.0797 39.8374 25.6994 39.8983 25.3261 40.0237C23.826 40.5264 23.0196 42.1559 23.5187 43.6642C23.7272 44.2895 24.1742 44.7656 24.7262 45.0212C23.5069 45.4974 21.8809 45.3965 20.3592 44.6291C20.3481 44.6256 20.3411 44.6214 20.3321 44.6158C20.289 44.6011 20.2368 44.6032 20.1958 44.6291C20.127 44.6697 20.0985 44.7572 20.1263 44.8286C21.2476 47.5098 24.2382 48.9187 27.0223 47.9825C29.3574 47.1961 30.6205 44.6501 29.8412 42.2966C29.3407 40.7897 27.9476 39.8374 26.4544 39.8374ZM32.7247 41.4507C32.0094 42.4962 32.2729 43.9268 33.3107 44.6473C33.7417 44.9463 34.2562 45.0324 34.7289 44.9295C34.1783 45.823 33.0925 46.547 31.7543 46.7942C31.7473 46.7963 31.7397 46.7977 31.7334 46.7991C31.6973 46.8103 31.666 46.8369 31.65 46.8733C31.6257 46.9328 31.6493 47.0029 31.7014 47.0344C33.6966 48.203 36.2784 47.6506 37.6068 45.7074C38.7226 44.0731 38.3131 41.838 36.6899 40.7141C36.1957 40.3717 35.6333 40.2071 35.0758 40.2071C34.1693 40.2071 33.2781 40.642 32.7247 41.4507ZM48.0405 43.0592C46.4604 43.5003 45.5345 45.15 45.9745 46.7424C46.5244 48.731 48.5695 49.8962 50.5452 49.3423C52.8976 48.6834 54.3102 46.3103 53.8451 43.9373C53.8305 43.8721 53.7714 43.8273 53.704 43.8308C53.6616 43.8329 53.6255 43.856 53.6018 43.8882C53.599 43.8952 53.5963 43.9015 53.5935 43.9071C52.8941 45.15 51.8201 45.9819 50.7607 46.2256C51.0214 45.7894 51.1104 45.2509 50.9651 44.725C50.6731 43.6642 49.7173 42.9709 48.6773 42.9709C48.4674 42.9709 48.2525 42.9989 48.0405 43.0592ZM39.3169 51.2427C39.1591 53.3 40.6836 55.0989 42.726 55.2593C45.1591 55.4504 47.2904 53.7068 47.6596 51.3191C47.6686 51.2553 47.6283 51.1909 47.5636 51.172C47.5226 51.1594 47.4802 51.1664 47.451 51.1902C47.4434 51.1944 47.4378 51.1979 47.4316 51.2042C46.3568 52.1313 45.0659 52.5431 43.987 52.4072C44.3791 52.0872 44.646 51.6132 44.6898 51.0656C44.7913 49.7485 43.8146 48.5987 42.507 48.495C42.4278 48.4887 42.3492 48.4866 42.2707 48.4866C40.7365 48.4866 39.4386 49.6763 39.3169 51.2427ZM22.7443 51.4836C20.8986 53.3798 20.9243 56.4251 22.8075 58.2856C25.0487 60.5026 28.5829 60.56 30.909 58.5125C30.9708 58.4558 30.9826 58.3599 30.934 58.287C30.9076 58.2422 30.8582 58.2149 30.8089 58.21H30.7783C28.9569 58.2275 27.3456 57.5574 26.3932 56.5225C27.0425 56.5365 27.6945 56.2921 28.1867 55.7872C29.3692 54.5737 29.3504 52.6236 28.1471 51.4339C27.4033 50.6994 26.4356 50.3324 25.47 50.3324C24.4808 50.3324 23.4923 50.7169 22.7443 51.4836ZM30.9583 52.9051C29.9767 55.0786 30.9305 57.6407 33.0883 58.6302C35.6583 59.8065 38.6607 58.7604 39.9989 56.3117C40.035 56.2466 40.0149 56.1597 39.953 56.1142C39.9148 56.0855 39.8661 56.0785 39.823 56.0883C39.8168 56.0904 39.807 56.0953 39.7973 56.0981C38.2645 56.6765 36.6997 56.6093 35.5811 56.0302C36.1338 55.8404 36.6086 55.4315 36.8693 54.8545C37.4977 53.4618 36.8873 51.8211 35.5054 51.1902C35.0445 50.9781 34.5613 50.8772 34.0858 50.8772C32.781 50.8772 31.5339 51.6307 30.9583 52.9051Z" fill="url(#paint0_linear_748_5098)"/>
<g id="Union">
<path d="M156.771 11.3038L160.598 10.3508L160.699 10.4356L160.699 27.0282H158.381V12.5615L156.771 11.5293V11.3038Z" fill="#006648"/>
<path fill-rule="evenodd" clip-rule="evenodd" d="M163.714 26.3185C163.261 25.8514 162.978 25.2717 162.849 24.5651L162.849 24.5635C162.848 24.5625 162.848 24.5617 162.848 24.5602C162.728 24.1261 162.807 23.2984 162.858 22.8888C162.864 22.7991 162.873 22.7158 162.891 22.6458V22.6444H163.197C163.197 22.6444 163.359 25.3186 165.501 25.3543H169.8C170.169 24.5875 170.366 23.3243 170.366 22.4021C170.366 20.7426 169.432 18.5999 167.559 18.5999L167.403 16.9263C170.424 17.0118 172.665 19.777 172.665 22.8279C172.665 23.1402 172.646 23.4735 172.609 23.8194C172.679 24.1079 172.771 24.3712 172.912 24.5875C173.066 24.8291 173.281 25.0133 173.551 25.1554C173.805 25.2829 174.132 25.3543 174.5 25.3543H176.981V16.9263H180.739C183.76 17.0118 186 19.777 186 22.8279C186 24.1051 185.689 25.7653 185.163 27.0285H175.024C174.302 27.0285 173.735 26.7722 173.295 26.3185C172.885 25.8956 172.616 25.3795 172.473 24.7605C172.329 25.5517 172.11 26.3465 171.827 27.0285H165.444C164.72 27.0285 164.154 26.7722 163.714 26.3185ZM180.895 18.5999H179.336V25.3543H183.136C183.504 24.5875 183.703 23.3243 183.703 22.4021C183.703 20.7426 182.767 18.5999 180.895 18.5999Z" fill="#006648"/>
<path d="M155.176 29.616C155.177 29.6121 155.178 29.6095 155.18 29.6067C155.181 29.6046 155.182 29.6022 155.183 29.5992C155.199 29.5341 155.215 29.4563 155.227 29.3723C155.243 29.2785 155.255 29.1826 155.26 29.0803C155.29 28.7372 155.293 28.3766 155.293 28.2422C155.305 27.6834 155.305 27.0238 155.305 27.0238V16.9923L155.192 16.9083L151.394 17.8543V18.0804L152.989 19.0972V28.3248C152.989 28.4858 152.98 28.6301 152.966 28.7617C152.966 28.7617 152.907 29.1966 152.767 29.4907C152.558 29.887 152.033 30.5298 150.718 31.0235V31.3911H152.446C152.446 31.3911 154.691 31.4821 155.176 29.616Z" fill="#006648"/>
<path d="M128.572 31.1521L128.578 31.1486C127.454 30.8265 126.533 30.1634 125.906 29.2566C125.796 29.0724 125.207 28.0795 125.222 26.658C125.222 26.6454 125.224 26.6363 125.226 26.6258C125.263 24.1295 127.144 22.2571 129.631 22.2571C131.017 22.2571 132.042 22.895 132.145 23.7941C132.154 23.8585 132.161 23.925 132.161 23.993C132.161 24.5791 131.786 25.0769 131.26 25.2653C131.117 25.3192 130.963 25.35 130.8 25.35C129.891 25.35 129.401 24.5952 129.401 23.8851C129.401 23.5742 129.476 23.2556 129.612 22.9671C128.336 23.0302 127.025 23.946 127.025 26.3688V26.4186C127.025 26.4186 127.021 26.581 127.036 26.8247L127.037 26.8226V26.8576C127.041 26.9241 127.047 26.9955 127.055 27.0705C127.136 27.7868 127.61 29.7243 130.222 29.7243H131.033L132.613 29.7215C133.01 29.7215 133.278 29.6228 133.419 29.4113C133.56 29.2132 133.63 28.8463 133.63 28.3225V19.0949L132.034 18.0774V17.8506L135.834 16.9038L135.947 16.9886V23.4867C135.959 23.5686 135.974 23.6499 135.992 23.7297C136.062 24.0546 136.174 24.3515 136.33 24.591C136.472 24.8318 136.683 25.0146 136.952 25.1574C137.206 25.2849 137.531 25.3542 137.912 25.3542H138.944C139.34 25.3542 139.608 25.2555 139.734 25.0447C139.876 24.8458 139.946 24.4782 139.946 23.9566V19.0949L138.364 18.0774V17.8506L142.177 16.9038L142.276 16.9886V22.6555C142.276 23.0519 142.32 23.4055 142.39 23.7297C142.445 24.0546 142.559 24.3515 142.715 24.591C142.87 24.8318 143.082 25.0146 143.336 25.1574C143.604 25.2849 143.929 25.3542 144.297 25.3542H145.158C145.581 25.3542 145.864 25.2555 145.992 25.0447C146.133 24.8458 146.189 24.4649 146.189 23.9138V19.0949L144.607 18.0774V17.8506L148.42 16.9038L148.52 16.9886V22.6555C148.52 22.6555 148.539 23.6281 148.495 24.3382L148.496 24.3375C148.496 24.3375 148.495 24.3521 148.493 24.3783L148.49 24.4066L148.486 24.4488C148.485 24.464 148.484 24.4798 148.483 24.4951L148.481 24.5125C148.482 24.5027 148.482 24.4957 148.482 24.4936C148.454 24.7534 148.377 25.2856 148.187 25.6644L148.186 25.6602C148.062 25.9221 147.899 26.1448 147.701 26.3436C147.475 26.5558 147.178 26.7267 146.81 26.838C146.458 26.9514 146.02 27.0229 145.511 27.0229H144.961C144.24 27.0229 143.632 26.7967 143.138 26.3436C142.644 25.906 142.347 25.3129 142.236 24.5637C142.135 25.2982 141.881 25.8913 141.443 26.3436C141.019 26.7967 140.284 27.0229 139.254 27.0229H138.618C137.884 27.0229 137.262 26.7967 136.768 26.3583C136.366 26.011 136.098 25.5657 135.947 25.0167V27.0229C135.947 27.0229 135.947 27.8029 135.932 28.3848C135.936 28.6061 135.926 29.6291 135.457 30.2964C135.36 30.4442 135.25 30.5828 135.113 30.711C134.888 30.9224 134.591 31.0926 134.237 31.206C133.868 31.3195 133.433 31.3895 132.924 31.3895H130.68C130.3 31.3895 129.96 31.3734 129.641 31.3419C129.525 31.3314 129.424 31.3181 129.329 31.3055C129.326 31.3048 129.324 31.3048 129.324 31.3048H129.32C128.809 31.2333 128.572 31.1521 128.572 31.1521Z" fill="#006648"/>
<path fill-rule="evenodd" clip-rule="evenodd" d="M71.8632 26.7905C71.8632 26.7905 72.0997 26.8725 72.6113 26.9425H72.6141C72.6156 26.9425 72.6169 26.9429 72.6181 26.9433L72.6196 26.9437L72.6211 26.9439C72.7149 26.9565 72.8171 26.9691 72.9325 26.981C73.251 27.0118 73.5911 27.0272 73.9711 27.0272H74.9551V27.0258H81.1276C83.006 27.0258 84.0935 26.3627 84.3189 24.5666C84.4602 25.2738 84.7437 25.8536 85.195 26.3207C85.2545 26.383 85.3287 26.4411 85.4134 26.4957C85.5632 26.6057 86.2266 27.0258 87.5668 27.0258H89.7272C90.2353 27.0258 90.6727 26.9558 91.0401 26.843C91.3928 26.7289 91.6895 26.5595 91.9156 26.3473C92.1563 26.1211 92.3264 25.8669 92.4523 25.5714C92.5797 25.2738 92.6651 24.9342 92.7071 24.5666C92.8197 25.3312 93.1165 25.9236 93.6252 26.3627C94.1186 26.8003 94.7408 27.0258 95.4749 27.0258H96.1104C97.1419 27.0258 97.8768 26.8003 98.3002 26.3473C98.7383 25.8949 98.9916 25.3025 99.0903 24.5666C99.2043 25.3165 99.5004 25.9096 99.9958 26.3473C100.489 26.8003 101.097 27.0258 101.817 27.0258H102.368C102.876 27.0258 103.314 26.9558 103.666 26.843C104.034 26.7289 104.331 26.5595 104.557 26.3473C104.783 26.1211 104.966 25.8669 105.093 25.5574C105.222 25.2591 105.292 24.9202 105.334 24.5666C105.461 25.2738 105.744 25.8536 106.195 26.3207C106.633 26.7723 107.199 27.0251 107.919 27.0251L107.929 27.0255C107.934 27.0257 107.941 27.0258 107.947 27.0258H119.225L119.232 27.0286C119.234 27.0205 119.237 27.0127 119.241 27.0048L119.243 26.9978C119.763 25.7395 120.069 24.0953 120.069 22.8279C120.069 19.777 117.827 17.0118 114.806 16.9257H111.05V25.3544L111.074 25.3593H107.396C107.029 25.3593 106.704 25.2885 106.45 25.1611C106.182 25.0189 105.97 24.8362 105.815 24.5953C105.658 24.3558 105.56 24.0589 105.489 23.734C105.419 23.4077 105.375 23.0555 105.375 22.6585V16.9922L105.278 16.9075L101.465 17.8542V18.0804L103.046 19.0985V23.9182C103.046 24.4686 102.989 24.8495 102.848 25.0463C102.721 25.2591 102.439 25.3593 102.015 25.3593H101.153C100.786 25.3593 100.461 25.2885 100.192 25.1611C99.9385 25.0189 99.7271 24.8362 99.571 24.5953C99.4157 24.3558 99.3023 24.0589 99.2463 23.734C99.1763 23.4077 99.1323 23.0555 99.1323 22.6585V16.9922L99.0357 16.9075L95.2216 17.8542V18.0804L96.8032 19.0985V23.9602C96.8032 24.4819 96.7332 24.8495 96.5905 25.0463C96.4631 25.2591 96.1957 25.3593 95.8003 25.3593H94.7681C94.3867 25.3593 94.0634 25.2885 93.8079 25.1611C93.5399 25.0189 93.3285 24.8362 93.1879 24.5953C93.0318 24.3558 92.9191 24.0589 92.8484 23.734C92.7764 23.4077 92.7505 23.0555 92.7505 22.6585V16.9922L92.6371 16.9075L88.8356 17.8542V18.0804L90.434 19.0985V23.9602C90.434 24.4819 90.3619 24.8495 90.2199 25.0463C90.0792 25.2591 89.8112 25.3593 89.4165 25.3593H86.424C84.7863 25.3165 84.3622 24.0442 84.3622 22.6585V10.436L84.2622 10.3513L80.4348 11.3029V11.5276L82.0451 12.5605V23.9182C82.0318 24.8362 81.9317 25.3593 81.0002 25.3593H73.5099C70.896 25.3593 70.4229 23.4203 70.3439 22.7047C70.3362 22.6291 70.3292 22.5576 70.3257 22.4925V22.4575L70.3243 22.4596C70.3096 22.2145 70.3138 22.0528 70.3138 22.0528C70.3142 22.0421 70.3141 22.0311 70.3139 22.02L70.3138 22.0031C70.3138 19.5803 71.6238 18.6644 72.8997 18.6021C72.766 18.8863 72.6911 19.2021 72.6911 19.511C72.6911 20.221 73.1817 20.9751 74.0915 20.9751C74.2545 20.9751 74.4071 20.945 74.5485 20.8911C75.0747 20.7041 75.4526 20.2063 75.4526 19.6188C75.4526 19.4864 75.4324 19.359 75.3967 19.2372C75.3946 19.2316 75.3939 19.2246 75.3918 19.2183C75.389 19.2106 75.3855 19.2021 75.3827 19.1944C75.1433 18.4193 74.181 17.8906 72.9178 17.8906C70.4047 17.8906 68.511 19.8015 68.511 22.3357C68.511 22.3516 68.5121 22.3668 68.5131 22.3821C68.514 22.3945 68.5149 22.4069 68.5152 22.4197C68.5145 22.4295 68.5131 22.4393 68.5131 22.4505C68.5152 22.5478 68.5208 22.6424 68.5271 22.7348C68.529 22.7532 68.5307 22.7715 68.5325 22.7897L68.5326 22.7909L68.5327 22.792C68.5347 22.8131 68.5368 22.8343 68.539 22.8552C68.5495 22.9596 68.5621 23.0625 68.5775 23.1612C68.5815 23.1845 68.5858 23.2077 68.5902 23.2309L68.5952 23.2577C68.5975 23.2702 68.5998 23.2826 68.602 23.295C68.6223 23.4014 68.6454 23.503 68.6691 23.6003C68.6733 23.6143 68.6775 23.629 68.681 23.6437C68.8602 24.325 69.1261 24.776 69.1968 24.8936C69.8239 25.8011 70.7386 26.4698 71.8632 26.7905ZM113.424 18.6315H114.978C116.49 18.6315 117.389 20.0347 117.676 21.4464C117.739 21.7713 117.772 22.0955 117.772 22.4022C117.772 23.3244 117.573 24.5869 117.204 25.3544H113.424V18.6315Z" fill="#006648"/>
<path fill-rule="evenodd" clip-rule="evenodd" d="M149.504 44.3948C149.504 41.7017 151.304 38.9758 154.746 38.9758C157.774 38.9758 159.658 41.0267 159.658 44.3283C159.658 47.055 157.863 49.816 154.438 49.816C151.44 49.816 149.504 47.6873 149.504 44.3948ZM151.927 44.4606C151.927 47.242 152.999 49.038 154.657 49.038C156.294 49.038 157.232 47.3204 157.232 44.3283C157.232 41.4637 156.213 39.753 154.504 39.753C152.915 39.753 151.927 41.5568 151.927 44.4606Z" fill="#006648"/>
<path fill-rule="evenodd" clip-rule="evenodd" d="M166.114 38.9758C162.674 38.9758 160.873 41.7017 160.873 44.3948C160.873 47.6873 162.808 49.816 165.806 49.816C169.233 49.816 171.025 47.055 171.025 44.3283C171.025 41.0267 169.144 38.9758 166.114 38.9758ZM166.026 49.038C164.367 49.038 163.297 47.242 163.297 44.4606C163.297 41.5568 164.284 39.753 165.872 39.753C167.581 39.753 168.602 41.4637 168.602 44.3283C168.602 47.3204 167.663 49.038 166.026 49.038Z" fill="#006648"/>
<path d="M147.809 48.5235L147.807 48.5242V48.7594L149.26 49.1558V49.4597H144.29V49.1558L145.671 48.7608V48.5249L145.669 48.5242V43.1219C145.669 41.5856 144.958 40.8069 143.555 40.8069C142.646 40.8069 141.971 40.982 141.178 41.4266L141.179 48.7608L142.533 49.1558V49.4597H137.565V49.1558L138.862 48.8008V34.9845L137.252 33.9531V33.7269L141.078 32.7739L141.178 32.8586V40.6452C142.41 39.522 143.598 38.9758 144.806 38.9758C146.881 38.9758 147.809 40.5829 147.809 42.1759V48.5235Z" fill="#006648"/>
<path d="M175.038 32.8585L174.939 32.7737L171.111 33.7268V33.9522L172.722 34.9837V48.7985L171.339 49.1542V49.4574H176.489V49.1542L175.038 48.7586L175.038 32.8585Z" fill="#006648"/>
<path d="M130.848 45.036C130.95 45.9365 131.533 48.4853 134.819 48.3572C135.709 48.2633 136.556 47.9748 137.43 47.547L137.546 47.8432C136.494 48.986 135.068 49.7751 133.635 49.8045C133.604 49.8108 133.567 49.8157 133.521 49.8157C131.464 49.8157 129.845 48.7535 129.06 47.0533C129.056 47.0434 129.052 47.0332 129.047 47.0236L129.042 47.012C128.994 46.9077 128.95 46.8006 128.908 46.6913C128.907 46.6894 128.907 46.6872 128.906 46.6853C128.905 46.6838 128.904 46.6823 128.903 46.6808H128.904C128.669 46.0471 128.544 45.3378 128.544 44.5703C128.544 41.3808 130.928 38.9755 134.091 38.9755C135.932 38.9755 137.269 39.8697 137.269 41.1007C137.269 41.9347 136.696 42.5649 135.937 42.5649C135.028 42.5649 134.537 41.8107 134.537 41.1007C134.537 40.6841 134.672 40.2534 134.906 39.9047C134.708 39.8746 134.512 39.8634 134.244 39.8634C132.585 39.8634 130.812 40.9908 130.812 44.153L130.812 44.1782C130.812 44.1904 130.812 44.2027 130.811 44.2146L130.812 44.2139C130.812 44.2139 130.806 44.4184 130.824 44.7265L130.826 44.7237L130.826 44.7362C130.826 44.7437 130.827 44.7544 130.827 44.7678C130.831 44.8407 130.838 44.9184 130.845 45.0005L130.845 45.0013L130.848 45.036Z" fill="#006648"/>
<path d="M182.167 42.9933L182.047 42.945C180.924 42.4969 179.764 42.0339 179.764 40.8695C179.764 39.9487 180.466 39.677 181.054 39.6098C182.485 39.5419 183.426 40.7232 183.622 40.9921C183.83 41.3002 184.04 41.6524 184.258 42.0592L184.644 41.9311L184.514 39.0973H184.513L184.511 39.0847L184.399 39.0622C183.868 38.9544 182.619 38.7016 181.757 38.7016C179.571 38.7016 178.044 40.0328 178.044 41.9409C178.044 43.7853 179.497 44.5457 180.993 45.1703C182.397 45.6801 183.391 46.1234 183.391 47.1709C183.391 48.0959 182.839 48.7352 181.952 48.89C181.928 48.8935 181.903 48.8977 181.88 48.9012L181.876 48.9013L181.872 48.9016L181.867 48.9022C181.865 48.9025 181.863 48.9029 181.862 48.9033C180.282 49.0846 179.26 47.7353 179.108 47.5196C178.862 47.1191 178.634 46.6415 178.434 46.0764H177.92V49.1672C177.921 49.1679 177.925 49.1694 177.925 49.1694L178.013 49.2086C179.152 49.7162 180.031 49.8157 181.163 49.8157C183.598 49.8157 185.232 48.3711 185.232 46.22C185.232 44.2708 183.462 43.5332 182.167 42.9933Z" fill="#006648"/>
<path d="M123.547 40.8562C124.01 41.0481 124.49 41.247 124.953 41.4724C126.814 42.368 127.608 43.4527 127.608 45.0982C127.608 48.3361 124.824 49.7932 122.846 49.7932L122.841 49.7925C121.686 49.7722 120.403 49.4999 119.552 49.0734L118.623 49.8647H118.274L117.995 44.7719L118.366 44.7257C118.642 45.358 118.92 45.9042 119.199 46.3782C119.381 46.6807 120.725 48.787 122.841 48.8626V48.8612L122.846 48.8613C122.884 48.862 122.92 48.8626 122.958 48.8626C124.499 48.8626 125.534 47.8354 125.534 46.3068C125.534 45.1304 125.163 44.4484 122.967 43.5199L122.721 43.4233L122.674 43.4048C122.048 43.1578 121.401 42.9028 120.81 42.6159C119.202 41.8239 118.486 40.719 118.486 39.0349C118.486 36.4056 120.578 34.9449 122.713 34.8749H122.716C123.718 34.9036 124.766 35.1403 125.499 35.5093L126.323 34.8069H126.633L126.88 39.3199L126.55 39.3612C126.117 38.369 125.68 37.6121 125.237 37.0407C124.383 35.9833 123.176 35.809 122.738 35.7796C122.728 35.7796 122.712 35.7793 122.694 35.779L122.605 35.7773C122.587 35.777 122.572 35.7768 122.563 35.7768C121.364 35.7768 120.558 36.671 120.558 38.0014C120.558 39.1176 121.124 39.8178 122.512 40.4151C122.846 40.567 123.185 40.7071 123.547 40.8562Z" fill="#006648"/>
<path d="M82.7908 35.1656L81.9454 37.5219L78.6009 45.9946L75.1724 37.524L74.2787 35.1656H69.419L69.4204 35.1663H69.4183V35.5395L71.1532 35.98V45.9141H71.1546V48.4651L69.4183 49.0589V49.4587H73.9078V49.0589L72.1715 48.4637V36.7985L72.1736 36.8013L77.4398 49.4552H78.1642L83.2079 36.8146V48.673L81.0328 49.0694V49.4594H87.873V49.0694L85.6993 48.673L85.7 35.9338L87.873 35.5388V35.1656H82.7908Z" fill="#006648"/>
<path d="M89.7219 40.148C89.7219 39.3322 90.412 38.6936 91.2952 38.6936C91.9369 38.6936 92.6283 39.2027 92.6283 40.0297C92.6283 40.7894 91.9971 41.6038 91.0572 41.6038C90.3588 41.6038 89.7219 40.9106 89.7219 40.148Z" fill="#006648"/>
<path d="M92.2675 42.4146L92.1681 42.3298L88.3421 43.2821V43.509L89.9511 44.5405V48.7712L88.5339 49.2089V49.4589H93.819V49.2089L92.2682 48.7292L92.2675 42.4146Z" fill="#006648"/>
<path d="M98.5888 42.945L98.7091 42.9933L98.7117 42.9944C100.006 43.5342 101.775 44.2718 101.775 46.22C101.775 48.3711 100.138 49.8157 97.7049 49.8157C96.5732 49.8157 95.6956 49.7162 94.5542 49.2086L94.4667 49.1694C94.4653 49.1686 94.4632 49.1679 94.4618 49.1672V46.0764H94.9769C95.1757 46.6415 95.4031 47.1191 95.6494 47.5196C95.802 47.7353 96.8266 49.0846 98.4047 48.9033C98.4096 48.9019 98.4173 48.9012 98.4222 48.9012L98.4509 48.8966C98.4652 48.8944 98.4797 48.892 98.4943 48.89C99.381 48.7352 99.9324 48.0959 99.9324 47.1709C99.9324 46.1234 98.9394 45.6801 97.5348 45.1703C96.0393 44.5457 94.5864 43.7853 94.5864 41.9409C94.5864 40.0328 96.1134 38.7016 98.299 38.7016C99.1606 38.7016 100.407 38.954 100.94 39.062L100.942 39.0622L101.054 39.0847L101.055 39.0973H101.056L101.184 41.9311L100.8 42.0592C100.582 41.6524 100.373 41.3002 100.164 40.9921C99.9681 40.7232 99.0262 39.5419 97.5957 39.6098C97.0071 39.677 96.3059 39.9487 96.3059 40.8695C96.3059 42.034 97.4655 42.4969 98.5888 42.945Z" fill="#006648"/>
<path d="M111.709 48.6479L108.494 44.5018C110.536 44.1097 112.079 42.3143 112.079 40.1569C112.079 39.9622 112.067 39.7704 112.042 39.5848C111.871 38.3349 110.8 37.3707 109.505 37.3707C108.139 37.3707 107.024 38.4392 106.946 39.7844H106.951C106.951 39.7877 106.95 39.7914 106.95 39.7952C106.949 39.7994 106.949 39.8038 106.949 39.8082C106.949 40.4363 107.457 40.9447 108.085 40.9447C108.712 40.9447 109.221 40.4363 109.221 39.8082C109.221 39.1801 108.712 38.6703 108.085 38.6703C107.981 38.6703 107.882 38.6885 107.788 38.7144C108.054 38.4427 108.423 38.2733 108.832 38.2733C109.561 38.2733 110.16 38.809 110.271 39.5071L110.275 39.5029C110.275 39.5029 110.363 39.8663 110.295 40.4251C110.295 40.4266 110.295 40.4277 110.295 40.4287C110.294 40.4292 110.294 40.4296 110.294 40.43C110.294 40.4304 110.294 40.4309 110.294 40.4314C110.287 40.4958 110.278 40.5602 110.265 40.6289C110.221 40.8964 110.144 41.1659 110.031 41.432C110.023 41.4509 110.016 41.4698 110.008 41.4887L110.007 41.4845C109.475 42.6847 108.231 43.7722 106.205 43.8135H105.449V43.5663H105.447V32.8612L105.348 32.7758L101.521 33.7288V33.9543L103.132 34.9857V48.7655L101.701 49.206V49.4594H106.746V49.206L105.448 48.7333L105.448 44.5746H106.17L109.116 48.7025L108.111 49.206V49.4594H112.807V49.206L111.841 48.8194L111.709 48.6479Z" fill="#006648"/>
<path d="M77.9784 13.4712C77.2478 13.6197 76.522 14.0846 76.522 14.8682V15.6727H78.8462V16.9023H75.6305C75.6207 16.9023 75.6095 16.9016 75.6095 16.9016C75.0804 16.9016 74.664 16.7147 74.3421 16.3821C74.1615 16.1965 74.0194 15.985 73.9117 15.749C73.8858 15.6951 73.8634 15.6391 73.8424 15.5824L73.8403 15.5831C73.8221 15.532 73.8046 15.4823 73.7899 15.4332H73.7913C73.8529 15.4493 73.9145 15.4655 73.976 15.4802C74.2476 15.5432 74.5205 15.5908 74.7941 15.623C75.0741 15.6559 75.3554 15.6734 75.6388 15.6727V14.9564C75.6836 13.3921 77.1148 12.2318 78.6929 12.2318C78.7426 12.2318 78.7944 12.2339 78.8462 12.236V13.4397C78.7153 13.4285 78.5887 13.4208 78.4732 13.4208C78.3143 13.4208 78.1457 13.4383 77.9784 13.4712Z" fill="#006648"/>
</g>
</g>
</g>
<defs>
<linearGradient id="paint0_linear_748_5098" x1="59.7839" y1="2.13813e-06" x2="-0.434171" y2="59.7823" gradientUnits="userSpaceOnUse">
<stop stop-color="#3ABBA0"/>
<stop offset="1" stop-color="#009365"/>
</linearGradient>
<clipPath id="clip0_748_5098">
<rect width="186" height="60" fill="white"/>
</clipPath>
</defs>
</svg>
